<?xml version="1.0" encoding="utf-8"?>
<!-- Generator: Adobe Illustrator 19.1.0, SVG Export Plug-In . SVG Version: 6.00 Build 0)  -->
<svg version="1.1" id="Layer_1" xmlns="http://www.w3.org/2000/svg" xmlns:xlink="http://www.w3.org/1999/xlink" x="0px" y="0px"
	 viewBox="0 0 409 138.5" style="enable-background:new 0 0 409 138.5;" xml:space="preserve">
<style type="text/css">
	.st0{fill:#FFFFFF;}
	.st1{fill:none;}
</style>
<g>
	<path class="st0" d="M110.1,80.9l31.7,22.9V28.9c0-15.2-12.3-27.5-27.5-27.5H33.3C18.1,1.4,5.8,13.7,5.8,28.9v74.8l31.7-22.9
		C53.7,69.2,53.1,57.9,43,36.4l0.3-1l1,0.2C58,53.5,60.2,70.3,40.8,84.2c-9.8,7-22.8,15-35,22.3v3.5c0,15.2,12.3,27.5,27.5,27.5
		h81.1c15.2,0,27.5-12.3,27.5-27.5v-3.6c-12.2-7.3-25.2-15.2-35-22.3c-19.4-13.9-17.2-30.7-3.5-48.6l1-0.2l0.3,1
		C94.5,57.9,93.9,69.2,110.1,80.9z M13.2,117.1l-1.1-0.1l0-1l34.3-33.2c14-13.6,13.3-22.6,4.6-49.4l0.4-1l0.9,0.4
		c11.6,23,14.5,40-2.7,54.9C34.4,100.9,24.7,108.4,13.2,117.1z M62,89L62,89l-21,33.2l-1,0.3l-0.3-1l17.1-36l0,0
		c11.2-20.2,8.5-34.7,4.1-54.1l0.5-0.9l0.9,0.5C70.3,53.2,73.7,72.1,62,89z M74.4,124.9c0,0-0.3,2-0.9,1.1l-0.3-1.1
		c-2.4-27.4-2.4-54.9-0.5-82.3v-0.8V22.1H64v-2.3h8.7v-7.2h2.1v7.2h8.7v2.3h-8.7v19.8v0.7C76.8,70.1,76.8,97.5,74.4,124.9z
		 M107.6,122.5l-1-0.3l-21-33.2l0-0.1c-11.7-16.9-8.4-35.8-0.3-58l0.9-0.5l0.5,0.9c-4.4,19.4-7.1,33.9,4.1,54.1l0,0l17,36
		L107.6,122.5z M101.1,82.8l34.3,33.2l0.1,1l-1.1,0.1c-11.5-8.7-21.2-16.2-36.5-29.4c-17.3-15-14.3-31.9-2.7-54.9l0.9-0.4l0.4,1
		C87.8,60.2,87.1,69.2,101.1,82.8z"/>
	<path class="st1" d="M33.3,1.4C18.1,1.4,5.8,13.7,5.8,28.9V110c0,15.2,12.3,27.5,27.5,27.5h81.1c15.2,0,27.5-12.3,27.5-27.5V28.9
		c0-15.2-12.3-27.5-27.5-27.5H33.3z"/>
	<path class="st0" d="M190.4,21.6c2.3-0.5,7-0.8,11.5-0.8c5.4,0,8.7,0.5,11.6,2.2c2.7,1.5,4.7,4.1,4.7,7.7c0,3.5-2,6.7-6.5,8.4v0.1
		c4.5,1.2,7.8,4.6,7.8,9.7c0,3.5-1.6,6.3-4.1,8.3c-2.9,2.3-7.6,3.5-15.4,3.5c-4.4,0-7.6-0.3-9.6-0.6V21.6z M199.2,36.6h2.9
		c4.7,0,7.2-1.9,7.2-4.8c0-3-2.3-4.5-6.3-4.5c-1.9,0-3,0.1-3.8,0.2V36.6z M199.2,54c0.9,0.1,1.9,0.1,3.4,0.1c4,0,7.6-1.5,7.6-5.6
		c0-4-3.5-5.5-8-5.5h-3V54z"/>
	<polygon class="st0" points="248,43.7 233.6,43.7 233.6,53 249.7,53 249.7,60.3 224.7,60.3 224.7,21.1 248.9,21.1 248.9,28.3 
		233.6,28.3 233.6,36.5 248,36.5 	"/>
	<path class="st0" d="M254.9,21.6c2.7-0.5,6.6-0.8,12-0.8c5.5,0,9.4,1,12,3.1c2.5,2,4.2,5.2,4.2,9.1c0,3.8-1.3,7.1-3.6,9.3
		c-3,2.9-7.5,4.1-12.7,4.1c-1.2,0-2.2-0.1-3-0.2v14h-8.8V21.6z M263.6,39.4c0.8,0.2,1.7,0.2,3,0.2c4.7,0,7.6-2.4,7.6-6.4
		c0-3.6-2.5-5.8-6.9-5.8c-1.8,0-3,0.2-3.7,0.3V39.4z"/>
	<path class="st0" d="M296.1,23.9c0,2.4-1.9,4.4-4.8,4.4c-2.8,0-4.7-2-4.6-4.4c-0.1-2.6,1.8-4.5,4.7-4.5S296,21.3,296.1,23.9
		 M287,31.8h8.8v28.4H287V31.8z"/>
	<path class="st0" d="M302.3,21.6c3.3-0.5,7.5-0.8,12-0.8c7.4,0,12.3,1.3,16.1,4.2c4.1,3,6.6,7.9,6.6,14.8c0,7.5-2.7,12.7-6.5,15.9
		c-4.1,3.4-10.4,5.1-18.1,5.1c-4.6,0-7.9-0.3-10.1-0.6V21.6z M311.2,53.6c0.8,0.2,2,0.2,3.1,0.2c8,0.1,13.3-4.4,13.3-13.7
		c0.1-8.1-4.7-12.4-12.3-12.4c-2,0-3.3,0.2-4,0.3V53.6z"/>
	<rect x="222.7" y="79.5" class="st0" width="3.3" height="12.7"/>
	<rect x="276.1" y="79.5" class="st0" width="3.2" height="12.7"/>
	<path class="st0" d="M277.7,74.2c1.1,0,1.8,0.8,1.8,1.8c0,0.9-0.7,1.7-1.8,1.7c-1.1,0-1.8-0.7-1.8-1.7
		C275.9,75,276.7,74.2,277.7,74.2"/>
	<path class="st0" d="M268.3,87c-2.5-0.9-3.5-2.3-3.5-3.7c0-2.2,1.9-4,4.8-4c1.4,0,2.6,0.4,3.4,0.8l-0.6,2.3
		c-0.6-0.3-1.6-0.7-2.7-0.7c-1.2,0-1.8,0.5-1.8,1.3c0,0.8,0.6,1.2,2.2,1.8c2.3,0.8,3.4,2,3.4,3.9c0,2.3-1.8,4-5.2,4
		c-1.5,0-2.9-0.4-3.8-0.9l0.6-2.3c0.7,0.5,2.1,0.9,3.3,0.9c1.4,0,2-0.6,2-1.4C270.3,88,269.8,87.5,268.3,87"/>
	<path class="st0" d="M258.6,79.5l0.1,2.4h0.1c0.6-1.8,2.1-2.7,3.5-2.7l0.8,0.1v3c-0.3-0.1-0.5-0.1-0.9-0.1c-1.5,0-2.6,1-2.9,2.4
		l-0.1,1v6.6h-3.2v-8.6c0-1.7,0-3-0.1-4.1H258.6z"/>
	<path class="st0" d="M231.5,79.5l2,6.5c0.4,1.1,0.7,2.1,0.9,3.2h0.1c0.2-1,0.5-2.1,0.9-3.2l2-6.5h3.4l-4.9,12.7h-3.2L228,79.5
		H231.5z"/>
	<path class="st0" d="M224.4,74.2c1.1,0,1.8,0.8,1.8,1.8c0,0.9-0.7,1.7-1.8,1.7c-1.1,0-1.8-0.7-1.8-1.7
		C222.5,75,223.3,74.2,224.4,74.2"/>
	<path class="st0" d="M210.5,79.5l0.1,1.9h0.1c0.5-1,1.9-2.2,4-2.2c2.2,0,4.5,1.4,4.5,5.5v7.6h-3.2v-7.2c0-1.8-0.7-3.2-2.4-3.2
		c-1.3,0-2.2,0.9-2.5,1.9l-0.1,1v7.5h-3.3v-8.9c0-1.5,0-2.7-0.1-3.8H210.5z"/>
	<path class="st0" d="M190.4,74.6h3.2v10.3c0,3.5,1.4,5.1,3.6,5.1c2.3,0,3.7-1.6,3.7-5.1V74.6h3.2v10.1c0,5.4-2.8,7.9-7,7.9
		c-4.1,0-6.7-2.2-6.7-7.8V74.6z"/>
	<path class="st0" d="M323,88.7v-15h-3.2v7.2h-0.1c-0.6-0.9-1.8-1.7-3.6-1.7c-3,0-5.7,2.5-5.7,6.8c0,3.9,2.4,6.5,5.4,6.5
		c1.9,0,3.4-0.9,4.2-2.3h0l0.1,2h2.9C323.1,91.4,323,90,323,88.7 M319.8,86.8l-0.1,0.9c-0.3,1.4-1.5,2.3-2.8,2.3c-2,0-3.2-1.7-3.2-4
		c0-2.4,1.1-4.2,3.2-4.2c1.5,0,2.5,1,2.8,2.3l0.1,0.8V86.8z"/>
	<path class="st0" d="M337.4,85.4c0-2.8-1.3-6.2-5.5-6.2c-4.1,0-6.2,3.3-6.2,6.9c0,3.9,2.4,6.5,6.6,6.5c1.8,0,3.4-0.4,4.4-0.8
		l-0.5-2.2c-1,0.3-2,0.6-3.5,0.6c-2,0-3.8-1-3.9-3.3h8.6C337.4,86.5,337.4,86,337.4,85.4 M328.8,84.5c0.1-1.3,1-3.1,3-3.1
		c2.1,0,2.7,1.9,2.6,3.1H328.8z"/>
	<path class="st0" d="M307.9,89.2v-4.6c0-2.8-1.2-5.4-5.3-5.4c-2,0-3.7,0.5-4.6,1.1l0.6,2.1c0.9-0.6,2.2-1,3.4-1
		c2.2,0,2.6,1.4,2.6,2.2v0.2c-4.7,0-7.6,1.6-7.6,4.8c0,1.9,1.5,3.8,4,3.8c1.6,0,3-0.7,3.8-1.7h0.1l0.2,1.4h2.9
		C308,91.5,307.9,90.4,307.9,89.2 M304.8,87.8l-0.1,0.7c-0.3,0.9-1.2,1.8-2.5,1.8c-1,0-1.8-0.6-1.8-1.8c0-1.9,2.2-2.4,4.5-2.4V87.8z
		"/>
	<path class="st0" d="M253.3,85.4c0-2.8-1.3-6.2-5.5-6.2c-4.1,0-6.2,3.3-6.2,6.9c0,3.9,2.4,6.5,6.6,6.5c1.8,0,3.3-0.4,4.5-0.8
		l-0.5-2.2c-1,0.3-2,0.6-3.5,0.6c-2,0-3.9-1-3.9-3.3h8.5C253.2,86.5,253.3,86,253.3,85.4 M244.6,84.5c0.1-1.3,1-3.1,3-3.1
		c2.1,0,2.7,1.9,2.6,3.1H244.6z"/>
	<path class="st0" d="M294.5,88.7v-15h-3.2v7.2h-0.1c-0.6-0.9-1.8-1.7-3.6-1.7c-3.1,0-5.8,2.5-5.7,6.8c0,3.9,2.4,6.5,5.4,6.5
		c1.8,0,3.4-0.9,4.2-2.3h0.1l0.1,2h2.9C294.6,91.4,294.5,90,294.5,88.7 M291.3,86.8l-0.1,0.9c-0.3,1.4-1.5,2.3-2.8,2.3
		c-2,0-3.2-1.7-3.2-4c0-2.4,1.1-4.2,3.2-4.2c1.5,0,2.5,1,2.8,2.3l0.1,0.8V86.8z"/>
	<rect x="243.9" y="101.2" class="st0" width="3.3" height="18.8"/>
	<rect x="250.7" y="107.1" class="st0" width="3.3" height="12.9"/>
	<path class="st0" d="M252.3,105.2c-1.1,0-1.8-0.8-1.8-1.8c0-1,0.7-1.8,1.8-1.8c1.1,0,1.8,0.8,1.8,1.8
		C254.2,104.4,253.4,105.2,252.3,105.2"/>
	<rect x="385.2" y="107.1" class="st0" width="3.3" height="12.9"/>
	<path class="st0" d="M386.9,101.7c1.1,0,1.8,0.8,1.8,1.8c0,1-0.7,1.8-1.9,1.8c-1.1,0-1.8-0.8-1.8-1.8
		C385,102.4,385.8,101.7,386.9,101.7"/>
	<rect x="378.4" y="101.2" class="st0" width="3.3" height="18.8"/>
	<polygon class="st0" points="374.1,101.5 377.2,101.5 374,105.4 371.8,105.4 	"/>
	<rect x="371.7" y="107" class="st0" width="3.3" height="12.9"/>
	<path class="st0" d="M363.7,114.6c-2.5-0.9-3.6-2.3-3.5-3.8c0-2.3,1.9-4,4.9-4c1.4,0,2.7,0.4,3.4,0.8l-0.7,2.3
		c-0.5-0.3-1.6-0.7-2.7-0.7c-1.2,0-1.8,0.6-1.8,1.4c0,0.8,0.6,1.2,2.3,1.8c2.3,0.8,3.4,2,3.4,3.9c0,2.3-1.8,4.1-5.2,4.1
		c-1.6,0-3-0.4-3.9-1l0.6-2.3c0.7,0.5,2.1,0.9,3.3,0.9c1.4,0,2.1-0.6,2.1-1.4C365.8,115.6,365.3,115.1,363.7,114.6"/>
	<path class="st0" d="M340.8,109.5h0.1c0.6-1.8,2.2-2.8,3.5-2.8l0.8,0.1v3.1c-0.3-0.1-0.6-0.1-1-0.1c-1.6,0-2.6,1-2.9,2.5l-0.1,1
		v6.7H338v-8.7c0-1.8,0-3-0.1-4.2h2.8L340.8,109.5z"/>
	<path class="st0" d="M263.8,106.8c1.2,0,2.4,0.2,3.1,0.6l-0.6,2.4c-0.5-0.2-1.3-0.5-2.4-0.5c-2.5,0-4,1.8-3.9,4.2
		c0,2.7,1.7,4.1,3.9,4.1c1.1,0,1.9-0.2,2.6-0.5l0.4,2.4c-0.7,0.3-2,0.7-3.6,0.7c-4,0-6.6-2.6-6.6-6.6
		C256.7,109.8,259.3,106.8,263.8,106.8"/>
	<polygon class="st0" points="238.6,101.5 235.3,105.4 233.1,105.4 235.4,101.5 	"/>
	<path class="st0" d="M226.7,107v2.4h-3.1v5.7c0,1.6,0.4,2.4,1.7,2.4c0.6,0,0.9-0.1,1.3-0.2l0,2.5c-0.5,0.2-1.3,0.4-2.3,0.4
		c-1.2,0-2.2-0.4-2.8-1.1c-0.7-0.7-1-1.9-1-3.6v-6h-1.9V107h1.9v-2.4l3.2-1v3.3H226.7z"/>
	<path class="st0" d="M200,101.8c2.1,0,3.7,0.5,4.3,0.8l-0.7,2.6c-0.8-0.4-2-0.7-3.5-0.7c-3.6,0-6.2,2.3-6.2,6.6
		c0,3.9,2.3,6.4,6.2,6.4c1.3,0,2.7-0.3,3.5-0.7l0.5,2.6c-0.8,0.4-2.5,0.8-4.6,0.8c-5.7,0-9.1-3.6-9.1-9
		C190.4,105.3,194.5,101.8,200,101.8"/>
	<path class="st0" d="M357.2,116.8v-4.7c0-2.8-1.2-5.4-5.3-5.4c-2,0-3.7,0.6-4.7,1.1l0.6,2.1c0.9-0.6,2.2-1,3.5-1
		c2.3,0,2.6,1.4,2.6,2.3v0.2c-4.8,0-7.6,1.6-7.6,4.9c0,1.9,1.4,3.8,4,3.8c1.7,0,3-0.7,3.8-1.8h0.1l0.2,1.4h2.9
		C357.3,119.1,357.2,118,357.2,116.8 M354,115.4l-0.1,0.7c-0.3,0.9-1.2,1.8-2.6,1.8c-1,0-1.9-0.6-1.9-1.8c0-2,2.2-2.5,4.5-2.4V115.4
		z"/>
	<path class="st0" d="M279.4,116.8v-4.7c0-2.8-1.2-5.4-5.3-5.4c-2,0-3.7,0.6-4.7,1.1l0.7,2.1c0.9-0.6,2.2-1,3.5-1
		c2.3,0,2.6,1.4,2.6,2.3v0.2c-4.7,0-7.7,1.6-7.7,4.9c0,1.9,1.5,3.8,4.1,3.8c1.7,0,3-0.7,3.8-1.8h0.1l0.2,1.4h2.9
		C279.4,119.1,279.4,118,279.4,116.8 M276.2,115.4l-0.1,0.7c-0.3,0.9-1.2,1.8-2.5,1.8c-1,0-1.8-0.6-1.8-1.8c0-2,2.2-2.5,4.5-2.4
		V115.4z"/>
	<path class="st0" d="M300.2,116.3v-15.2h-3.3v7.3h0c-0.6-1-1.8-1.7-3.6-1.7c-3.1,0-5.8,2.6-5.8,6.9c0,4,2.4,6.6,5.5,6.6
		c1.9,0,3.4-0.9,4.2-2.4h0.1l0.1,2.1h2.9C300.2,119.1,300.2,117.6,300.2,116.3 M296.9,114.4l-0.1,0.9c-0.3,1.4-1.5,2.3-2.8,2.3
		c-2.1,0-3.2-1.7-3.2-4.1c0-2.4,1.2-4.2,3.2-4.2c1.5,0,2.5,1,2.8,2.3l0.1,0.9V114.4z"/>
	<path class="st0" d="M216.6,116.8v-4.7c0-2.8-1.2-5.4-5.3-5.4c-2,0-3.7,0.6-4.6,1.1l0.6,2.1c0.9-0.6,2.2-1,3.5-1
		c2.3,0,2.6,1.4,2.6,2.3v0.2c-4.8,0-7.7,1.6-7.7,4.9c0,1.9,1.5,3.8,4.1,3.8c1.6,0,3-0.7,3.8-1.8h0.1l0.2,1.4h3
		C216.6,119.1,216.6,118,216.6,116.8 M213.4,115.4l-0.1,0.7c-0.3,0.9-1.3,1.8-2.5,1.8c-1,0-1.8-0.6-1.8-1.8c0-2,2.2-2.5,4.5-2.4
		V115.4z"/>
	<path class="st0" d="M234.8,106.8c-3.9,0-6.7,2.6-6.7,6.8c0,4.1,2.8,6.7,6.4,6.7c3.3,0,6.6-2.1,6.6-6.9
		C241.2,109.5,238.7,106.8,234.8,106.8 M234.7,117.9c-2,0-3.2-1.9-3.2-4.4c0-2.1,0.9-4.3,3.2-4.3c2.2,0,3.1,2.3,3.1,4.3
		C237.9,116,236.6,117.9,234.7,117.9"/>
	<path class="st0" d="M314.7,113c0-2.8-1.3-6.3-5.5-6.3c-4.1,0-6.3,3.4-6.3,6.9c0,3.9,2.4,6.6,6.6,6.6c1.9,0,3.4-0.4,4.5-0.8
		l-0.5-2.2c-1,0.4-2.1,0.6-3.6,0.6c-2.1,0-3.9-1-4-3.3h8.6C314.6,114.1,314.7,113.6,314.7,113 M305.9,112.1c0.1-1.3,1-3.1,3-3.1
		c2.2,0,2.7,2,2.7,3.1H305.9z"/>
	<path class="st0" d="M402,116.8v-4.7c0-2.8-1.2-5.4-5.3-5.4c-2.1,0-3.7,0.6-4.7,1.1l0.6,2.1c0.9-0.6,2.2-1,3.5-1
		c2.3,0,2.6,1.4,2.6,2.3v0.2c-4.8,0-7.7,1.6-7.7,4.9c0,1.9,1.5,3.8,4.1,3.8c1.7,0,3-0.7,3.8-1.8h0.1l0.2,1.4h2.9
		C402.1,119.1,402,118,402,116.8 M398.8,115.4l-0.1,0.7c-0.3,0.9-1.2,1.8-2.5,1.8c-1,0-1.8-0.6-1.8-1.8c0-2,2.2-2.5,4.5-2.4V115.4z"
		/>
	<path class="st0" d="M331.6,110.4L331.6,110.4c1.9-0.8,3-2.3,3-3.9c0-1.5-0.8-2.7-1.9-3.3c-1.2-0.9-2.7-1.1-5.1-1.1
		c-1.8,0-3.7,0.2-4.8,0.4v17.5c0.8,0.1,2.2,0.2,4,0.2c3.3,0,5.3-0.6,6.6-1.7c1-0.8,1.7-2.1,1.7-3.7
		C335.2,112.3,333.5,110.8,331.6,110.4 M326.1,104.5c0.4-0.1,0.9-0.1,1.9-0.1c2.1,0,3.3,0.8,3.3,2.4c0,1.5-1.3,2.6-3.5,2.6h-1.7
		V104.5z M327.9,117.6c-0.8,0-1.3,0-1.7-0.1v-5.8h1.6c2.3,0,4.1,0.8,4.1,2.9C331.8,116.9,329.9,117.6,327.9,117.6"/>
</g>
</svg>
